<svg xmlns="http://www.w3.org/2000/svg" xmlns:xlink="http://www.w3.org/1999/xlink" version="1.1" x="0px" y="0px" viewBox="0 0 66 82.5" enable-background="new 0 0 66 66" xml:space="preserve"><g><path d="M11.8,42.8v17.9c0,1.7-1.4,3.1-3.1,3.1H2c-0.5,0-1-0.5-1-1V40.7c0-0.5,0.4-1,1-1h6.7C10.4,39.7,11.8,41.1,11.8,42.8z"/><g><path d="M61.7,50.1h-0.2c-9.3,1-23.8,2.5-32.4,0.8l10.8-1c0.6-0.1,1-0.6,0.9-1.2c-0.5-2.7-2.7-4.9-5.4-5.2l-10.6-2    c-1.5-0.4-2.8-0.4-4.2,0.2l-6.7,3.5v13.4c21.5,5.2,19.9,4.8,20.8,4.8c1.1,0-0.1,0.1,27.6-6.1c1.7-0.4,2.8-1.9,2.8-3.6    C65,51.9,63.5,50.3,61.7,50.1z"/><path d="M41.3,18.1c4.4,0,8-3.6,8-8s-3.6-8-8-8s-8,3.6-8,8S36.9,18.1,41.3,18.1z"/><path d="M26.6,39.9h29.6c0.5,0,1-0.5,1-1V28.4c0-3.8-3.3-6.8-7.4-6.8H33c-4.1,0-7.4,3.1-7.4,6.8v10.5C25.6,39.5,26,39.9,26.6,39.9    z"/></g></g><text x="0" y="81" fill="#000000" font-size="5px" font-weight="bold" font-family="'Helvetica Neue', Helvetica, Arial-Unicode, Arial, Sans-serif">Created by ProSymbols</text><text x="0" y="86" fill="#000000" font-size="5px" font-weight="bold" font-family="'Helvetica Neue', Helvetica, Arial-Unicode, Arial, Sans-serif">from the Noun Project</text></svg>