<svg xmlns="http://www.w3.org/2000/svg" xmlns:xlink="http://www.w3.org/1999/xlink" version="1.1" x="0px" y="0px" viewBox="0 0 27.064 36.725" style="enable-background:new 0 0 27.064 29.38;" xml:space="preserve"><g><path d="M22.195,16.386c0-2.791,1.814-5.136,4.321-5.985c0.167-0.057,0.27-0.225,0.243-0.399c-0.239-1.574-0.531-3.153-0.871-4.605   c-0.024-0.102-0.091-0.188-0.183-0.238c-0.093-0.049-0.202-0.057-0.3-0.021c-0.536,0.2-1.113,0.317-1.72,0.317   c-2.767,0-5.008-2.241-5.008-5.008c0-0.166,0.001-0.065,0.003-0.098c0.008-0.101-0.027,0.01-0.097-0.064S18.42,0.38,18.318,0.38   H8.746c-0.102,0-0.197-0.167-0.266-0.095c-0.069,0.074-0.105,0.069-0.098,0.17C8.385,0.487,8.387,0.468,8.387,0.5   c0,2.767-2.242,4.98-5.008,4.98c-0.493,0-1.15-0.131-1.724-0.335C1.558,5.11,1.449,5.113,1.358,5.162   c-0.091,0.05-0.156,0.134-0.181,0.234C0.857,6.768,0.564,8.3,0.306,10.004c-0.027,0.175,0.076,0.342,0.243,0.399   c2.506,0.848,4.32,3.192,4.32,5.983c0,2.899-1.949,5.333-4.605,6.091c-0.182,0.052-0.293,0.233-0.257,0.42   c0.343,1.748,0.877,3.394,1.568,4.902c0.087,0.19,0.261,0.327,0.467,0.366c0.206,0.039,0.418-0.023,0.569-0.169   c1.228-1.178,2.893-1.902,4.729-1.902c2.354,0,4.428,1.191,5.657,3.003c0.121,0.177,0.321,0.283,0.536,0.283   c0.214,0,0.415-0.105,0.536-0.283c1.228-1.812,3.301-3.003,5.656-3.003c1.837,0,3.501,0.725,4.729,1.902   c0.15,0.146,0.363,0.208,0.569,0.169c0.205-0.039,0.38-0.176,0.467-0.366c0.69-1.509,1.225-3.154,1.567-4.903   c0.036-0.186-0.075-0.367-0.258-0.419C24.145,21.719,22.195,19.285,22.195,16.386z"/></g><text x="0" y="44.379999999999995" fill="#000000" font-size="5px" font-weight="bold" font-family="'Helvetica Neue', Helvetica, Arial-Unicode, Arial, Sans-serif">Created by Yo! Baba</text><text x="0" y="49.379999999999995" fill="#000000" font-size="5px" font-weight="bold" font-family="'Helvetica Neue', Helvetica, Arial-Unicode, Arial, Sans-serif">from the Noun Project</text></svg>